<svg width="195" height="143" viewBox="0 0 195 143" fill="none" xmlns="http://www.w3.org/2000/svg">
<path d="M78.7467 78C78.7467 78 90.575 68.3452 98 46.4128C94.9206 43.36 91.8366 40.3071 88.7476 37.2542L59.8676 8.80029C58.2848 7.24078 56.702 5.66709 55.1048 4.12175C54.7132 3.75141 54.2506 3.46163 53.7442 3.26933C53.2377 3.07703 52.6974 2.98605 52.1548 3.00173H17.6919C13.893 3.00173 10.0941 3.00174 6.29527 3.14351C5.24483 3.14351 4.22311 3.342 3 3.45542C3.19048 3.59676 3.37303 3.7482 3.54681 3.90908L78.7467 78Z" fill="#313131"/>
<path d="M194.499 34.7235C193.773 29.1683 192.095 23.7771 189.539 18.7827C186.063 11.9312 180.256 6.52179 173.147 3.51254C166.224 0.617769 158.682 -0.515378 151.205 0.215904C148.093 0.481153 145.028 1.148 142.089 2.19959C134.864 5.00539 128.521 9.67008 123.713 15.7144C119.236 21.212 115.379 27.1796 112.21 33.5105C109.435 38.8051 107.02 44.2567 104.705 49.7511L103.914 51.9916C97.0119 68.7888 84.603 84.5299 84.603 84.5299L82.2451 87.013C79.5813 89.9137 76.7688 92.6765 73.819 95.2903C69.5913 98.971 64.7758 101.928 59.5699 104.039C54.1587 106.021 48.4556 107.106 42.6893 107.25C39.2759 107.412 35.8548 107.273 32.4661 106.836C27.8009 106.249 23.2027 105.222 18.7344 103.767C12.6745 101.966 7.01794 99.0304 2.06955 95.1191C1.43689 94.591 0.789785 94.0915 0.0277147 93.4779C0.0277147 95.219 0.0277147 96.7602 0.0277147 98.3158C-0.0728265 101.588 0.10029 104.862 0.545326 108.106C1.41022 114.057 3.35913 119.802 6.2968 125.06C8.97628 129.908 12.8186 134.025 17.4835 137.048C23.459 140.715 30.3033 142.753 37.3259 142.956C39.7873 143.06 42.2532 142.979 44.7022 142.713C48.7052 142.32 52.6029 141.208 56.2051 139.431C61.2849 136.919 65.8298 133.459 69.5918 129.241C74.3068 123.933 78.3486 118.072 81.6267 111.788C84.8475 105.951 87.5507 99.8571 90.1676 93.7348L91.7494 90.6094C91.7494 90.6094 98.6224 70.8866 111.88 55.6165C114.209 53.3617 116.524 51.0926 118.954 48.9376C124.506 43.8751 131.085 40.0504 138.25 37.7205C141.554 36.627 144.975 35.9182 148.444 35.6083C150.558 35.4371 152.672 35.2801 154.8 35.2373C156.175 35.2257 157.548 35.3067 158.912 35.4799C161.788 35.8224 164.534 36.0936 167.28 36.6502C175.458 38.3751 183.252 41.5567 190.286 46.0406L193.651 48.1384C194.366 47.3954 194.824 46.4457 194.959 45.4269C195.082 41.8527 194.928 38.2744 194.499 34.7235Z" fill="#313131"/>
<path d="M171.87 120.28L140.993 89.1263C132.364 80.4223 123.735 71.7135 115.106 63C104.757 73.0541 99.9244 88.8534 98 96.753C100.851 99.6256 103.702 102.584 106.553 105.471C116.227 115.238 125.916 124.995 135.619 134.743L139.44 138.564C139.878 139.016 140.401 139.376 140.979 139.622C141.556 139.869 142.176 139.997 142.804 140C157.6 140 172.392 140 187.18 140C188.42 140 189.66 139.828 191 139.727L190.558 139.239C184.352 132.938 178.123 126.618 171.87 120.28Z" fill="#313131"/>
</svg>

